<svg xmlns="http://www.w3.org/2000/svg" width="124.333" height="50"><g fill="#fff"><path d="M41.033 21.858c.155-.668-.257-.542-.733-.257-1.64.958-2.744 1.5-3.3 1.6-.2.03-.204-.03-.044-.174.044.044.624-.188 1.742-.697 1.074-.493 1.503-.792 1.285-.893-.3.218-.835.48-1.633.784l-1.535.653-1.427.566c.03-.044.058-.232.087-.566a7.07 7.07 0 0 0-.011-1.164c-.036-.443-.127-.766-.272-.97-.363-.48-.784-.824-1.263-1.034s-.82-.265-1.024-.164c-.378.117-.82.1-1.328-.077s-.85-.15-1.024.055c-.058.044-.258.27-.6.675s-.75.972-1.23 1.7a16.04 16.04 0 0 0-1.24 2.243 5.91 5.91 0 0 0-.534 2.396c-.008.828.25 1.517.773 2.07 1.2 1.293 2.388 1.568 3.593.828 1.234-.9 2.396-2.33 3.484-4.3 1.553-.406 2.788-.87 3.702-1.394l1.503-.927c.33-.217.908-.462 1.02-.886l.016-.065zm-8.595 3.5l-.544.86-.73 1c-.27.334-.56.6-.87.828s-.607.32-.882.305c-.204-.014-.345-.095-.425-.24s-.102-.34-.065-.588a5.81 5.81 0 0 1 .174-.784c.08-.275.196-.578.348-.903l.414-.87.414-.784.305-.534.12-.218c.014.03.06.1.142.218l.185.25.207.25c.094.117.185.208.272.272l.305.218c.116.08.247.15.392.208a2.43 2.43 0 0 0 .457.13l-.218.392zm.828-2.178c-.174.493-.37.755-.588.784-.276-.058-.44-.3-.5-.75s.022-.9.218-1.34.454-.697.773-.74c.03-.014.05-.022.065-.022h.044c.145.073.22.313.23.72s-.076.857-.25 1.35zm4.116.196c-.145.044-.204.044-.174 0 1.002-.406 1.887-.857 2.657-1.35-.073.087-.2.204-.414.348a8.73 8.73 0 0 1-2.07 1.002zM75.06 20.86l.1-.087c.03-.014.065-.05.1-.1s.08-.095.1-.1a.96.96 0 0 1-.076.119.9.9 0 0 0-.076.12.84.84 0 0 0-.087.13l.218-.218.338-.5c.08-.1.112-.164.098-.164-.03 0-.2.188-.544.566l-.196.24z"/><path d="M76.107 20.555c-.044.014-.45.443-1.22 1.285l-1.024 1.067c-.015.014-.033.03-.054.044s-.04.022-.054.022c.058-.058.116-.16.174-.305-.073 0-.05-.022.065-.065l.142-.065c.022-.014.025-.036.01-.065-.015-.058.022-.1.1-.13.072-.03.243-.178.512-.447s.417-.438.446-.5c0-.044-.138.087-.414.392-.3.3-.494.465-.6.523-.015 0 .08-.1.283-.305.058-.073.1-.123.152-.152.363-.363.53-.56.5-.588-.03 0-.298.27-.806.806l-.425.457-.534.566-.446.447c-.196.195-.36.337-.5.424a1.31 1.31 0 0 1-.348.174c.755-.596 1.6-1.423 2.504-2.483 0-.03.225-.247.675-.653l.305-.283c-.233.204-.443.334-.632.392-.16.058-.152-.03.022-.26a6.24 6.24 0 0 1 .501-.675 4.78 4.78 0 0 1-.828.544l-1.677 1.394-1.22 1.067c-2.73 2.294-4.203 3.144-4.42 2.548-.2-.5-.16-1.186.087-2.037s.348-1.412.305-1.687c-.015-.1-.07-.243-.163-.424a2.81 2.81 0 0 0-.403-.566c-.174-.197-.407-.28-.697-.25s-.603.2-.936.544l-1.1 1.198c-1.32 1.45-2.12 2.192-2.396 2.22-.204.03-.233-.204-.087-.697.183-.64.388-1.273.48-1.938.044-.42-.1-.926-.403-1.513s-.7-1.025-1.132-1.307-.904-.243-1.383.12l-.72.653-.414.37c.203-.305.16-.667-.13-1.1-.334-.493-.683-.74-1.045-.74-.45 0-.95.428-1.503 1.285 0 .014-.196.337-.588.97-.868 1.395-1.747 2.953-2.2 4.54-.232.813-.188 1.408.13 1.786.436.523.795.838 1.078.948s.482.087.6-.067.24-.416.37-.794c.903-2.6 2.202-3.857 4.486-5.38.522-.348.725-.2.6.412-.2 1.084-.84 2.156-.763 3.268.072 1.045.388 1.778.947 2.2s1.136.3 1.73-.392l1.024-1.045.392-.436c.784-.813 1.277-1.22 1.48-1.22.174.014.297.253.37.718.208 1.32 1.098 1.862 2.385 1.907 1.5.052 2.436-.813 3.538-1.634.978-.728 1.802-1.55 2.658-2.406l1.285-1.328c-.03-.1 0-.196.087-.283.014-.03.044-.058.087-.087l.087-.065a.61.61 0 0 1 .087-.12l.1-.12c.03-.014.06-.047.098-.097l.076-.1c.232-.32.327-.48.283-.48zm-1.85.697l.13-.13c.01-.005.027-.026.04-.036l-.344.406-.022.022-.044.022.24-.283zm-.87.915l.588-.523a6.56 6.56 0 0 1-.436.479c-.566.537-.944.857-1.132.958-.015 0-.022-.004-.022-.012s-.008-.01-.022-.01c.13-.13.47-.428 1.024-.893zm-3.18 3.092c-.044.014-.044 0 0-.044.334-.406 1.444-1.358 3.332-2.853.58-.523.85-.806.806-.85-.03-.014 0-.065.087-.152.058-.058.094-.087.1-.087.03 0 .044.014.044.044.014.058-.124.232-.414.523l-.1.12a1.25 1.25 0 0 1-.142.14l-.142.13-3.572 3.027zm32.706-14.584c-.044.03.203.036.74.022.653-.014.98-.058.98-.13 0-.058.036-.065.1-.022.044.03.312.044.806.044.45 0 .675-.022.675-.065 0-.058.058-.065.174-.022.1.03 1.873.036 5.314.022l9.538.044c0-.03-.115-.058-.348-.087l-.174-.022h.284l-1.177-.022-4.247-.087c-.03 0 .446 0 1.426 0h5.237l.676-.065c0-.044-1.904-.058-5.706-.044h-3.3l-.022-.022 1.437-.022 6.5-.022c0-.058-1.012-.105-3.037-.142s-3.118-.032-3.278.012a5.3 5.3 0 0 0-.414-.087l4.312-.087c.1-.014.152-.03.152-.044s-.073-.036-.218-.065l-.24-.044c-1.463-.358-3.3-.167-4.8-.223l-4.2-.112a148.64 148.64 0 0 0-9.154.16l-4.638.203.74-1.706 1.27-2.94c.3-.45.3-.867 0-1.253s-.653-.584-1.1-.598h-.087c-.407.03-.675.27-.806.72-.726 1.307-1.663 3.303-2.8 6a.68.68 0 0 0-.196.022l-4.508.348-2.994.327-2.276.26a2.39 2.39 0 0 1-.294-.032c-.138-.023-.243-.026-.316-.012-.3.1-.508.225-.653.37s-.232.3-.26.436-.05.356-.065.632c-.014.305.254.515.806.632s1.162.087 1.83-.087c.044-.014 0-.065-.13-.152-.188-.13-.247-.204-.174-.218.596-.117 2.816-.34 6.664-.675l1.808-.087-2.97 6.985C85.845 27.6 85.873 31.816 85.94 33.5s.432 2.948 1.1 3.8c.667.857 1.62 1.27 2.853 1.24.537-.014 1.05-.2 1.535-.588.408-.316 1.25-.872 1.233-1.44a.2.2 0 0 0-.164-.035l-.02-.353a1.19 1.19 0 0 1-.484.046c.098-.246.166-.503.204-.765-.337-.176-1.518 1.187-1.794 1.404-.95.747-1.572.94-1.862.576-.45-.566-1.558-3.358.642-10.475 1.333-4.3 3.13-8.622 5.063-12.74l1.307-2.722a8.64 8.64 0 0 1 .37-.044v-.044c.058 0 .145-.004.26-.012a5.32 5.32 0 0 1 .261-.01 6.82 6.82 0 0 0 .305-.01c.13-.008.225-.01.283-.01.03-.03.03-.05 0-.065 0-.03.13-.058.392-.087.363-.014.544 0 .544.044-.015.014-.13.03-.348.044-.073 0-.124.008-.152.022l.022.022a3.02 3.02 0 0 0 .196-.01 2.36 2.36 0 0 1 .218-.01l.13.022h.348l.022-.022c.087 0 .214-.004.38-.012l.38-.01h.044l.958-.044a3.01 3.01 0 0 1 .196.01c.087.008.152.012.196.012h.087c.087 0 .232-.004.436-.012l.436-.01h.044c.174-.03.297-.058.37-.087.058-.014.072-.03.044-.044-.058-.03-.225-.036-.5-.022l-.392-.022c.188-.058.885-.1 2.1-.13l1.655-.065a2.75 2.75 0 0 1-.457-.087c-.102-.044-.152-.036-.152.022 0 .044-.218.065-.653.065l-.457.022.305-.044c.058 0 .142-.008.25-.022s.192-.03.25-.044h-.544c-.363 0-.574.03-.632.087-.058.044-.182.044-.37 0a1.41 1.41 0 0 0-.48-.044c-.087 0-.102.014-.044.044l-1.873.065c-.378-.014-1.532.044-3.463.174l.174-.087a20.72 20.72 0 0 1 .697-.033 13.53 13.53 0 0 0 .653-.032 13.48 13.48 0 0 1 .555-.032l.457-.023a6.4 6.4 0 0 1 .327-.01c.094 0 .16-.004.196-.01s.047-.01.033-.01c-.058-.044.268-.065.98-.065l1.46-.065c.174-.058.42-.087.74-.087.203-.014.32-.014.348 0l-.13.044a.4.4 0 0 1-.087.022zM91.893 36.57l.174-.196c.014 0 .025.014.033.044s.007.07 0 .12-.026.105-.054.163c-.348.552-.646.828-.893.828-.073.014-.124.018-.152.012a.26.26 0 0 1-.098-.055c-.036-.03-.062-.044-.076-.044.16 0 .515-.3 1.067-.87z"/><path d="M103 11.024h-.24c-.45.014-.574.036-.37.065.116.014.275.022.48.022.16 0 .37-.022.632-.065l.152-.022H103zm3.593-.066c.044-.044.058-.065.044-.065l-.24.044c-.13.044-.204.087-.218.13.014.014.007.022-.022.022l.403-.012.403-.01.077-.001c-.3-.002-.47-.023-.47-.065 0-.014.007-.03.022-.044z"/><path d="M106.353 10.828h.196l-.087-.022c-.015 0-.033-.004-.054-.01s-.04-.01-.054-.01h-.1a.47.47 0 0 0-.098.011l-.076.01.196.022h.087zm15.81-.13c.015-.014-.013-.03-.087-.044-.143 0-.218.022-.218.065s-.064.044-.195 0c-.146-.044-.515-.058-1.112-.044-.624.03-.936.022-.936-.022 0-.014-.726-.022-2.178-.022l-6.185.022-2.025.022v-.022l-2.07.1c-.03.014-.015.03.044.044.087.014.523.014 1.307 0h1.786l-.305.022-.348.044h.74l.72.022a.7.7 0 0 0-.109.022c-.247.03-.57.04-.97.032s-.642-.024-.73-.054c-.117-.044-.523-.05-1.22-.022l-.436.022-.37.022c.247.014.363.044.348.087-.042.042-.22.063-.52.064l2.36-.033.838-.01 1.122-.01 1.122-.012h.632a2.06 2.06 0 0 0 .185-.012l.142-.01h.457a2.13 2.13 0 0 0 .174-.01l.152-.012-.37-.065c-.407-.073-1.038-.073-1.895 0h-.24l.1-.022c.218-.044.218-.073 0-.087l1.328-.022h.98l2.83.044c.13.03.13.044 0 .044h-.174c-.174 0-.625-.014-1.35-.044-.596-.014-.893 0-.893.044l.087.087h2.83l.73-.01.73-.012h.348a1.69 1.69 0 0 0-.61-.022c-.174.03-.32.022-.436-.022l3.397-.065c.06 0 .174-.01.348-.033l.392-.032c-.028-.014-.072-.022-.13-.022a.32.32 0 0 1-.131-.022zm-10.823.1h-.24l-.283-.022h.523c.072.014.072.022 0 .022zm5.183.1h-.26l-.37-.022h.632c.116.014.116.022 0 .022z"/><path d="M107.072 11.067l.024-.001h-.056l.032.001zm14.522 10.12l.023-.044c.013-.014.02-.03.02-.044s-.036.022-.108.1l-.087.1c0-.014.013-.033.044-.054s.05-.033.064-.033.03-.014.044-.044zm.938-.653c-.03 0-.118.073-.26.218-.13.13-.174.196-.13.196s.13-.065.26-.196c.143-.145.187-.218.13-.218z"/><path d="M121.748 20.512a.73.73 0 0 1 .064-.087l-.064.044-.087.1.044-.022c.028-.014.044-.03.044-.044zm.325.218c.015-.03.008-.03-.02 0l-.044.044c-.044.044-.06.073-.044.087l.064-.065c.015 0 .023-.008.023-.022s.008-.03.02-.044zm-.37.588l.087-.087.15-.152c-.028.014-.072.05-.13.1-.072.073-.123.1-.15.087-.015 0-.015-.014 0-.044 0-.014-.036.008-.1.065-.1.1-.167.182-.195.24.013.058.13-.014.348-.218zm.674-.818l.087-.087.12-.132-.13.087a.6.6 0 0 0-.108.13h.02z"/><path d="M121.507 21.797c-.087.1-.08.1.023 0l.087-.087.587-.632a1.3 1.3 0 0 1 .131-.152v-.022l-.238.26c-.25.26-.372.378-.372.348v-.044l-.174.174c-.087.087-.138.145-.15.174l.087-.087c.028-.014.06-.036.097-.065l.077-.065a.68.68 0 0 1-.077.109l-.077.087z"/><path d="M120.026 23.06l-.697.653-.805.664-.502.404-.108.11c-.03.03-.054.044-.077.044s-.026-.014-.01-.044l.15-.152 1.156-1.057 1.35-1.23.63-.632c.015-.044-.1.065-.348.327l-.325.305c-.118.1-.167.13-.154.087.074-.1.197-.243.372-.425l.348-.38c-.044.014-.18.127-.402.337s-.346.346-.36.404a.2.2 0 0 1-.044.087c-.013.014-.028.014-.044 0-.028 0-.064.036-.108.11-.015.044-.023.073-.023.087l-.02-.044c0-.073-.13.022-.392.283l-.284.283h.044c.03 0-.072.11-.305.327-.013.014-.036.03-.064.044-.218.218-.297.283-.24.196l.023-.044c0-.03-.095.036-.284.196l-.174.163c-.072.067-.13.113-.174.142.044-.044.095-.1.154-.174s.108-.123.15-.152l.392-.37.784-.73.85-.796.828-.806.74-.73.348-.337c-.13.058-.26.167-.392.327-.044.044-.067.036-.067-.022.015-.058-.187.13-.6.566l-.48.5.087-.13.305-.37c-.028 0-.377.327-1.045.98l-.304.283.043-.043.023-.044-.154.13c-.056.058-.1.1-.13.152.015-.007.044-.036.065-.054l-2.112 1.862-.184.13c-.064.044-.14.11-.228.196l-1.983 1.437c-1.36.96-2.976 2.05-4.584 2.526-.733.218-1.303.225-1.71.022-1.39-.697-1.145-2.716-.664-3.91.68-1.69 1.85-3.496 3.256-4.66.68-.565 2.023-1.367 2.95-1.253.24.03.4.014.512-.044s.13-.24.087-.544c-.25-.552-1.025-.813-2.332-.784-2.51.436-4.472 1.982-5.88 4.64-1.257 2.372-1.5 5.783 1.013 7.492 2.478 1.685 5.95.013 7.972-1.6 1.007-.798 2.165-1.83 3.472-3.092 0-.058.03-.087.087-.087.044 0 .118-.044.218-.13.25-.204.38-.348.392-.436 0-.03-.036-.008-.108.065-.087.087-.233.2-.436.37-.233.174-.348.283-.348.327 0 .058-.044.11-.13.152-.06.03-.092.04-.097.032s.01-.04.054-.097.06-.087.054-.087-.04.03-.097.087l-.023.022.154-.196.13-.13c.028-.058-.154.08-.546.414-.013.014-.036.032-.064.055s-.05.04-.067.054l-.348.283c.102-.073.2-.167.328-.283l.228-.218.25-.218.207-.19c.082-.068.155-.142.232-.214l.105-.096c.326-.298.334-.313.05-.066l.385-.402.645-.862-.187.153-.85.784c0-.014.254-.27.764-.762l.02-.022.023-.022.02-.022.023-.022.02-.022.023-.022.26-.202.436-.582c.077-.108.167-.197.25-.298-.12.03-.266.1-.456.244-.238.18-.54.446-.904.794zm-3.615 3.724c-.028.03-.087.073-.174.13-.028.014-.064.04-.108.076l-.087.077-.044.022.218-.196.218-.152-.023.044zm-.507-.295l-.363.184 1.068-.847-.704.663zm1.422-.358l-.087.065c-.1.1-.182.174-.238.218l-.217.152.304-.282.26-.196-.023.044zm.26-.348c-.072.073-.13.123-.174.152-.028.014-.056.04-.087.077s-.05.054-.064.054l-.023.022.197-.196.195-.152-.044.044zm.502-.24c0 .014-.015.022-.044.022-.03.03-.05.036-.067.022-.013 0 .008-.03.067-.087.028-.03.056-.05.087-.065l-.044.11zm.087-.588l-.197.163-.13.1c-.028.02-.044.024-.044.01s.1-.117.328-.305l1.022-.87c0 .014-.225.225-.674.632a1.68 1.68 0 0 1-.164.142l-.14.12zm.238.283c.17-.1.31-.22.464-.333-.235.198-.393.312-.464.333zm1.176-1.568l.3-.26-.127.12c-.115.108-.174.155-.174.14z"/><path d="M121.464 20.86c.06-.058.092-.1.1-.12s-.005-.04-.033-.055c-.074-.014-.146.044-.218.174-.03.044-.044.08-.044.1.013.073.08.036.195-.1zm-.456 1.85l.436-.37a22.88 22.88 0 0 0-.74.56l-.118.158.423-.347zm.38-.688c.032-.008.072-.03.1-.03.087-.117.23-.254.436-.414l.305-.348c.044 0 .13-.065.26-.196.087-.087.123-.13.108-.13l-.087.022c-.42.304-.786.68-1.122 1.096zm-1.904 2.475h.044l.044-.044c0-.03.008-.044.02-.044l.023-.022c-.015 0-.036.014-.067.044-.072.044-.095.065-.064.065z"/><path d="M120.877 21.318l.044-.044c0-.03.008-.044.02-.044.015-.03.018-.04.013-.033l-.056.055c-.072.044-.087.065-.044.065h.023zm-.59 2.308l-.13.152c.03-.03.05-.04.056-.032s.003.032-.013.076c-.013.073-.013.095 0 .065.03-.014.087-.1.174-.283.015-.014.033-.044.056-.087l.054-.1c-.03.014-.067.047-.1.097l-.087.12zm-32.22-2.32c-.027-.004-.054-.003-.08-.004l1.666-1.584c-.035-.02-.772.542-2.197 1.678-.345.134-.676.383-.952.633l-.154.13 1.506-1.34-.544.414-2.2 1.7-1.764 1.35-.6.457c-.13.1-.13.095 0-.022a.83.83 0 0 0 .11-.087l1.187-1.067.882-.806c-3.615 2.9-6.14 4.32-7.58 4.3-.552-.03-.936-.27-1.154-.72s-.283-.937-.196-1.46.522-1.284.522-1.284 1.048.195 2.43-.2c1.95-.573 3.818-2 4.323-4.124.28-1.33-.68-2.5-1.795-3.094-1.03-.56-2.6-.048-3.55.54-1.006.628-1.84 1.533-2.516 2.5-.625.894-1.06 1.78-1.307 2.657-.546 1.943-.63 5.003 1.384 6.12 3.787 2.104 9.706-3.098 12.162-5.456a22.16 22.16 0 0 0-.8.485 12.42 12.42 0 0 0 1.09-1.03l.33-.284c.072-.1.26-.305.566-.6.74-.7 1.096-1.075 1.067-1.1-.05-.012-.657.428-1.813 1.315zm-8.716-2.48c.64-.52 1.085-.817 1.405-.817h.13c.247.232.732 1.222-.893 2.603-1.712 1.455-3.006 1.3-3.006 1.3s.57-1.625 2.363-3.086zm1.677 7.206l-.492.202.318-.2c.588-.363.998-.653 1.23-.87.046.082-.3.37-1.056.858zm19.526-8.325c.653-.26 1.165-.537 1.535-.828s.595-.562.675-.817.094-.493.044-.717-.138-.407-.26-.546a1.19 1.19 0 0 0-.36-.293c-.145-.058-.27-.087-.37-.087-.42 0-.828.16-1.22.48s-.574.697-.544 1.132c.014.117-.047.384-.185.806s-.17.715-.098.88.334.164.784-.01zm8.45 4.116l-.044.044.146-.128-.103.084z"/><path d="M108.742 20.994c-.13.188-.657.667-1.58 1.437l-1.94 1.526c-.342.152-.695.347-1.05.573l1.193-.88c.682-.523 1.394-1.154 2.134-1.895-3.296 2.584-6.425 4.595-9.386 6.033-.436.073-.7-.058-.762-.392-.117-.64.602-2.235 2.156-4.8.3-.48.457-.77.5-.87.334-.42.37-.835.1-1.24s-.6-.624-1.045-.653h-.1a.93.93 0 0 0-.327.065 2.66 2.66 0 0 1-.196.076l-.196.067a1 1 0 0 0-.174.076 1.08 1.08 0 0 0-.185.109l-.174.14a1.4 1.4 0 0 0-.207.208l-.218.272-.283.36a4.57 4.57 0 0 0-.218.414 2.52 2.52 0 0 0-.076.164c-.022.05-.044.094-.065.13a.48.48 0 0 1-.054.076l-.022.022c-.015-.03-.037.014-.065.13 0 .014-.008.033-.022.054s-.033.06-.054.1a1.57 1.57 0 0 0-.054.141c-.886 2.06-1.2 3.666-.915 4.813.145.58.508 1.057 1.1 1.426s1.285.5 2.112.36c.987-.16 2.235-.733 3.746-1.72s2.823-1.974 3.942-2.962 2-1.822 2.613-2.504c-.2.16-.483.38-.882.665l-1.165.828-.587.422c.154-.155.63-.573 1.458-1.294l1.48-1.318c-1.32 1.016-1.982 1.503-1.982 1.46a294.66 294.66 0 0 1 1.132-1.024c.624-.566.93-.87.915-.915-.015-.014.007-.05.065-.1l.065-.087c0-.03-.24.138-.72.5zm-10.998.26l-.01.022c-.002-.004.006-.018.01-.022zm5.95 3.595l-.4.292c.016-.035.16-.132.4-.292zm-58.412 1.13c-.044 0-.102.03-.174.087-.102.073-.145.117-.13.13s.072-.014.174-.087c.1-.087.145-.13.13-.13zm-1.685 1.147l.335-.276-.335.276z"/><path d="M43.597 27.125l-.192.148.135-.097c.015-.015.04-.035.057-.05zm2.448-1.015v-.022c-.02.015-.044.04-.065.058.015-.01.03-.027.044-.036h.022z"/><path d="M44.65 27.045l.283-.196a1.3 1.3 0 0 1 .196-.152c.1-.073.138-.1.1-.1l-.087.044c-.015.014-.04.033-.076.054s-.062.04-.076.055a.46.46 0 0 1-.109.087c-.16.1-.27.188-.327.26h.044l.043-.044zm1.112-.718c.03-.014.058-.036.087-.065.048-.05.1-.08.13-.116a1.75 1.75 0 0 0-.218.182z"/><path d="M55.257 20.338l-3.68 2.004c.16-.174.482-.374.97-.598s.838-.4 1.056-.556c.247-.145.5-.348.762-.6-.668.26-1.772.83-3.3 1.7l-3.18 1.906-.196-.13c-.77-.348-1.688-.584-2.755-.707-.842-.097-3.315-.125-3.604-1.165-.44-1.585 2.565-3.234 3.574-3.773 1.495-.798 2.88-1.316 3.46-1.302.3.014.377.117.26.305-.16.218-.215.5-.163.816s.22.477.512.447c.014 0 .152-.05.414-.152 1.38-.552 1.85-1.053 1.416-1.503-.233-.523-.7-.917-1.416-1.132-1.884-.566-4.515-.04-6.787 1.05-1.646.8-3.708 2.13-3.612 4.2.022.473.22.912.6 1.318 1.07 1.15 3.22 1.258 4.67 1.503.95.16 1.65.37 2.123.632a10.21 10.21 0 0 1 .305.174l-1.328.87.588-.283.893-.48c.03-.014.058-.008.087.022s.036.05.022.065l-1.002.675-1.307.87-1.437 1.067-1.85 1.427-.85.642c.77-.74 1.488-1.35 2.156-1.83l.758-.556c-.082.054-.046.01.113-.14.348-.305.544-.5.588-.588.188-.247-.9.515-3.267 2.287-1.685 1.5-2.875 2.8-3.572 3.898-1.188 1.856-.838 4.28 1.546 4.66 5.347.852 11.273-4.153 10.846-9.528-.058-.733-.185-1.34-.38-1.818s-.4-.857-.642-1.132c.188-.174.74-.544 1.655-1.1l2.548-1.578c.784-.487 1.16-.752 1.132-.796a3.47 3.47 0 0 1-.348.152l.653-.37c.74-.465 1.125-.762 1.154-.893 0-.03-.058-.022-.174.022zm-6.686 3.68c1.074-.726 1.865-1.184 2.374-1.372-.218.13-.574.356-1.067.675l-1.252.794c-.34.2-.512.302-.512.273-.03-.03.123-.152.457-.37zm-3.898 2.548c.014-.014.033-.026.054-.032a.17.17 0 0 1 .054-.012c.145-.073.225-.123.24-.152.058-.087.16-.174.305-.26.232-.145.392-.232.48-.26a6.38 6.38 0 0 1 .48-.196l-.457.283-.37.196c-.145.087-.174.117-.087.087.014.014 0 .044-.044.087-.102.087-.167.117-.196.087s-.117.03-.26.174a1.94 1.94 0 0 0-.065.065l-.044.022c-.03.014-.05.036-.065.065l.022-.044c.044-.058.022-.058-.065 0-.073.044-.1.05-.1.022 0-.044.044-.087.13-.13zm-2.396 2.07c.072-.058.23-.188.468-.392s.454-.378.642-.523.312-.225.37-.24c.116-.058.268-.17.457-.337s.327-.265.414-.295c.03-.014.07-.033.12-.054s.083-.033.098-.033c.058-.058.065-.095.022-.1l.218-.13a.84.84 0 0 1 .13-.087 3.46 3.46 0 0 0 .196-.109c.072-.044.134-.083.185-.12s.083-.054.098-.054h.065l.218-.1c.145-.087.218-.15.218-.186s-.065-.018-.196.055a11.34 11.34 0 0 1 .686-.468c.283-.182.446-.265.5-.25.03 0 .03.014 0 .044.014 0-.008.026-.065.077a3.38 3.38 0 0 1-.218.174c-.088.066-.16.1-.218.14-.204.13-.407.283-.6.457l.6-.392-.48.327-.348.24-.13.13c0-.014.014-.036.044-.065L43.7 27.74l.457-.348.022-.022c-.087.073-.134.1-.142.087s.033-.058.12-.13l.1-.1c.03-.03-.05.022-.24.152-.218.145-.348.26-.392.348-.03.058-.058.073-.087.044l-.6.436c-.03.03-.008.044.065.044.014-.014.03-.022.044-.022l-.566.392c-.03.014-.058.03-.087.044l.022-.022-.196.1a2.28 2.28 0 0 0-.196.13l.26-.24zm-.185.697c1.43-1.162 2.26-1.764 2.494-1.808l-3.245 2.548a34.89 34.89 0 0 0-1.48 1.416l-.283.283c-.087.073-.095.065-.022-.022.26-.45 1.107-1.255 2.537-2.417zm-2.036.697l-.24.305a14.77 14.77 0 0 1-.555.653c-.196.218-.323.334-.38.348-.087 0 .305-.436 1.176-1.307zm-1.205 6.12c-2.4-.762.88-4.25 1.64-4.945 1.32-1.205 3.65-3.085 7-5.64.7.915.824 2.02.338 3.322s-1.252 2.554-2.298 3.766c-1.203 1.396-2.705 2.602-4.44 3.26-.8.3-1.644.423-2.232.236zm13.9-14.223l-.185.152a7.45 7.45 0 0 1-.305.24c-.378.218-1.038.632-1.982 1.24s-1.554.98-1.83 1.1c.145-.073.573-.345 1.285-.817l2.025-1.34c.64-.42.98-.632 1.024-.632.014 0 .003.014-.033.044zM9.523 11.342a1.3 1.3 0 0 0 .12-.152l.12-.174.348-.5c.16-.26.145-.305-.044-.13a4.77 4.77 0 0 0-.588.675c-.145.188-.334.523-.566 1.002l-.13.283.436-.566.305-.436zm16.31 15.44a8.49 8.49 0 0 0 .958-.87c.014-.014.03-.036.044-.065s.03-.044.044-.044c.16-.16.232-.254.218-.283 0-.014-.044.014-.13.087l-.283.26c-.552.537-.835.842-.85.915z"/><path d="M28.622 24.442l-.087.097-.5.5-.817.807-.555.555c-.2.188-.313.34-.37.457l.348-.24.316-.24a3.74 3.74 0 0 0 .338-.305l.294-.295.305-.325.272-.305.283-.338.24-.283c0-.014.007-.044.022-.087a.37.37 0 0 0 .022-.109l-.1.12zm-1.045 2.646l-1.644 1.845.365-.677-1.328.954.326-.496c.017-.026-.02-.02-.078-.005l1.16-1.098.457-.653c-.058.073-.152.174-.283.305l-1.067 1.067-.468.452-.22.095c.082-.095.1-.15.036-.133l-.373.288-.34.165-.574.33c1.184-1.036 1.893-1.84 2.094-2.393-.102.117-.632.566-1.6 1.35-1.838 1.512-9.503 9.273-15.23 8.907-3.532-.225-4.026-4.42-3.748-7.003.383-3.556 1.72-7.084 3.173-10.326 2.133-4.757 4.932-8.8 8.25-12.77.935-1.116 5.082-5.45 7.165-4.638 1.494.582.143 4.044-.9 5.842-1.336 2.284-1.28 2.257-.8 2.804.435.508.873.777 1.306.72 1.338-.182 2.27-2.614 2.613-3.833.463-1.643.878-3.824-.097-5.53-.42-.736-1.137-1.38-1.906-1.657a4.35 4.35 0 0 0-1.067-.196c-.436-.044-.842-.022-1.22.065a8.55 8.55 0 0 0-2.221.762c-.378.188-.737.388-1.078.6l-.74.468c-.152.1-.23.145-.23.13l.196-.196c.13-.117.363-.287.697-.512a11.28 11.28 0 0 1 1.089-.642c.74-.392 1.488-.66 2.243-.806.247-.058.566-.087.958-.087-.218-.014-.537 0-.958.044-.225.03-.363.058-.436.087-.015 0-.04.008-.076.022a.27.27 0 0 1-.076.022 3.07 3.07 0 0 0-.24.076c-.102.036-.16.06-.187.063l-.632.24c-.015 0-.054.014-.12.044a4.77 4.77 0 0 1-.24.1 3.06 3.06 0 0 0-.272.12l-.152.076a1.7 1.7 0 0 0-.174.099l-.087.044c-.015 0-.044.014-.087.044s-.073.044-.087.044c-.465.275-.777.47-.937.588a19.3 19.3 0 0 0-.697.523l-.26.196c-.015.03-.01.05.01.065s.054.022.098.022c.116.014-.05.225-.5.632l-.152.1a.5.5 0 0 0-.131.087c-1.017.697-1.06.64-.13-.174l.152-.152a2.5 2.5 0 0 0 .131-.109l-.1.065c-.13.117-.34.3-.632.523a5.4 5.4 0 0 0-.436.348l-.283.26a23.46 23.46 0 0 0-1.002 1.024c-.058.03-.095.058-.1.087.03-.03.044-.05.044-.065l-1.154 1.31-.044.044c-.073.058-.163.15-.272.273l-.207.228a1.13 1.13 0 0 1-.152.131c-.233.275-.566.7-1.002 1.24-.254.465-.363.7-.348.784.014.117.232-.095.653-.632l.044-.044c.348-.465.508-.617.48-.457 0 .044-.098.2-.294.468l-.86 1.2-1.002 1.448a17.98 17.98 0 0 0-.5.774l-.327.5-.566.936-.152.327c.232-.3.428-.487.588-.588s.203-.182.13-.24c-.044-.014-.008-.138.1-.37a6.07 6.07 0 0 1 .414-.697c.3-.45.457-.7.5-.72l-.26.544-.414.806.544-.806c.348-.493.523-.828.523-1.002-.015-.16.116-.34.392-.544l.13-.087a5.22 5.22 0 0 0 .316-.3 15.79 15.79 0 0 0-.422 1.154c-.026.04-.04.064-.068.105a3.51 3.51 0 0 1-.109.152c-.16.204-.247.32-.26.348l.065-.24c.03-.073.044-.117.044-.13-.03-.073-.298.275-.806 1.045l-.348.523c-.378.596-.516.944-.414 1.045.116.087.094.16-.065.218-.145.058-.43.443-.85 1.154-.407.7-.566 1.097-.48 1.154.087.044.044.123-.13.24-.16.107-.585.874-1.27 2.285-.124.05-.248.102-.356.183-.06.044-.102.105-.152.16l.034-.078c.436-.988.646-1.517.632-1.6-.087-.087-.378.406-.87 1.48a11.56 11.56 0 0 0-.131.283l-.174.392c-.276.64-.6 1.473-1.002 2.504l-.327.784c0-.044.072-.327.218-.85.087-.334.13-.523.13-.566.014-.13-.145.283-.48 1.24a19.46 19.46 0 0 0-.26.72l-.196.6.022-.305c.087-.48.26-1.053.523-1.72s.464-1.067.6-1.198c.058-.058.37-.7.936-1.96l.022-.044.544-1.198c.087-.232.094-.3.022-.174-.218.334-.363.493-.436.48-.117-.014-.015-.32.305-.915a9.32 9.32 0 0 0 .26-.48c.174-.26.3-.32.348-.174.03.073.058.117.087.13.044-.014.094-.167.152-.457l.044-.218c.03-.204.007-.283-.065-.24-.03 0-.044-.03-.044-.087L5.55 17.33c-.276.537-.58 1.176-.915 1.916l-.196.446c-.087.197-.152.338-.196.425-.305.683-.675 1.64-1.1 2.875-.523 1.582-.853 2.817-1 3.702s-.192 1.982-.163 3.3l.224-1.4a12.62 12.62 0 0 0-.026.617 22.52 22.52 0 0 0-.09 1.045c.014.232 0 .602-.044 1.1.1.218.16.414.174.588s.036.283.065.327c.014.014.022.036.022.065.055.07.1.093.105.075.297 1.904 1.908 5.498 5.8 6.662 4.875 1.463 11.35-3.775 12.683-4.864 2.134-1.742 3.912-3.358 5.336-4.846s1.974-2.32 1.655-2.493c.13-.218.185-.32.163-.305s-.178.182-.468.5zm-24.38-2.83c.01-.03.02-.056.03-.08l-.03.08zm11.2-18.504l.1-.096.26-.26c.16-.15.242-.222.267-.232l-.62.6zM12.66 7.16c.058-.058.138-.152.24-.283a8.03 8.03 0 0 1 .305-.37l.283-.327c.464-.493.863-.88 1.198-1.154l.174-.1c-.015.044-.516.617-1.503 1.72a1.46 1.46 0 0 1-.152.174c-.204.232-.34.384-.414.457-.494.566-.733.798-.72.697.014-.058.2-.327.588-.806zm-1.546 2.788c-.027 0 .008-.07.095-.195l-.1.195zm-1.873 3.42h.022c.145-.218.24-.305.283-.26s.007.167-.1.37c-.117.188-.2.27-.283.24s-.044-.145.087-.348zm-1.154 3.158a6.14 6.14 0 0 1-.305.61 15.19 15.19 0 0 0-.37.653.85.85 0 0 1-.109.152l.348-.72c.247-.465.4-.726.457-.784l-.022.087zm-.915.762c.48-.9.755-1.336.828-1.307.014.014-.174.392-.566 1.132l-.283.523c-.204.348-.305.487-.305.414 0-.1.1-.356.327-.762z"/></g><path d="M57.588 49.6c-.723 0-1.414-.082-2.075-.248s-1.287-.423-1.88-.773a4.2 4.2 0 0 1-1.453-1.441c-.376-.6-.604-1.328-.68-2.15h1.983c.1.723.382 1.313.87 1.77s1 .76 1.533.9a6.18 6.18 0 0 0 1.678.225c1 0 1.833-.2 2.525-.634s1.038-1.084 1.038-1.983c0-.47-.102-.878-.306-1.228s-.534-.65-1-.9a9.14 9.14 0 0 0-1.24-.577l-1.6-.5c-1.7-.507-2.978-1.082-3.84-1.724s-1.292-1.593-1.292-2.854c0-1.353.5-2.408 1.5-3.165s2.295-1.135 3.886-1.135c.676 0 1.315.08 1.914.236a6.43 6.43 0 0 1 1.701.721c.534.323.978.784 1.332 1.383s.58 1.3.68 2.1h-1.96c-.154-.976-.587-1.683-1.297-2.12s-1.494-.657-2.347-.657c-.914 0-1.718.215-2.4.646s-1.038 1.073-1.038 1.926a2.05 2.05 0 0 0 .236.98c.156.292.334.53.53.7s.496.36.9.542l1.008.415 1.153.35c1.76.523 2.94.965 3.54 1.326 1.276.754 1.914 1.887 1.914 3.402 0 1.46-.5 2.565-1.533 3.314s-2.352 1.124-4 1.124zm21.12-16.096h2.006v15.82h-2.006v-7.16h-9.673v7.16h-2.006v-15.82h2.006V40.5h9.673v-6.987zM92.928 49.6c-2.314 0-4.3-.803-5.926-2.4s-2.456-3.536-2.456-5.788.82-4.18 2.456-5.788 3.612-2.4 5.926-2.4c2.3 0 4.267.803 5.903 2.4s2.456 3.536 2.456 5.788-.82 4.18-2.456 5.788a8.12 8.12 0 0 1-5.903 2.409zm-4.508-3.7c1.244 1.245 2.75 1.868 4.513 1.868a6.09 6.09 0 0 0 4.497-1.868 6.17 6.17 0 0 0 1.85-4.508 6.17 6.17 0 0 0-1.85-4.508 6.09 6.09 0 0 0-4.497-1.868c-1.763 0-3.27.623-4.513 1.868a6.14 6.14 0 0 0-1.868 4.508 6.14 6.14 0 0 0 1.868 4.508zm23.807-2.306h-5.154v5.72h-1.902v-15.82h7.194c1.4 0 2.586.484 3.563 1.453s1.463 2.168 1.463 3.597c0 1.414-.486 2.6-1.458 3.585s-2.208 1.464-3.707 1.464zm-5.154-8.52V42h4.704c1.053 0 1.933-.33 2.64-.992s1.06-1.48 1.06-2.456-.346-1.8-1.037-2.468-1.534-1.003-2.525-1.003h-4.843z" fill="#e6595a"/><g fill="#fff"><path d="M94.673 30.697l-.04.083a.25.25 0 0 1 .092-.018c.03-.01-.013-.037-.05-.065zm-.08.16l-.008.015.015.02z"/><path d="M94.596 31.027c.02-.022.023-.05.017-.08-.023.016-.033.04-.017.08z"/><path d="M94.7 30.924c-.035-.002-.07-.01-.09-.033l.013.055c.018-.012.044-.02.076-.022z"/><path d="M94.7 30.924l.087-.001-.087.001z"/><path d="M95.43 31.228c.018.025-.194-.055-.157-.006.035.095.107.193.08.263.036.05-.22.01-.183.06.032.095.243.395.273.278.033-.182.02-.312.034-.478l-.14-.46c.002-.038.03-.065.055-.094l-.144.103c-.08.044.168.214.18.334zm-.425-1.128l.06.067c-.177.023-.138.112-.1.204l.118.001c0-.046-.06-.068-.117-.046.157-.044.202-.12.204-.208-.06-.012-.128-.032-.165-.018z"/><path d="M95.167 30.055l.003.053.002-.054h-.006zm-.497 1.365c-.066.206-.154.4-.253.562.035.03.078.06.045.07-.042-.001-.07.003-.092.01 0 0-.045.075-.04.1.017.025.05.035.085.04l.087.005-.087-.005c-.032.001-.058.006-.077.017.002.03-.003.058-.027.078-.01-.04.001-.064.027-.078 0 0-.01-.057-.023-.08l-.1.166v.045c.008.056.015.112-.122.126l-.1.122c.025.047.06.1.074.145l-.117-.02c.045.037.07.07.076.1l.203.017c.118.02-.172-.167.037-.1-.2-.057.08.13-.037.1l-.203-.017c.015.06-.05.097-.17.1-.058-.097.048-.1.17-.1-.007-.03-.032-.062-.076-.1l.117.02c-.014-.044-.05-.098-.074-.145l-.183.237c-.414.505-.683 1.025-1.134 1.516-1.054 1.102-1.76 2.482-3.055 3.38.612.03 1.57.32 2.138.124.607-.2.922-.946 1.492-1.24.13-.068.18-.208.3-.325.737-.495.86-1.352 1.337-2.07.1-.203.022-.48.004-.702.028-.142.197-.224.245-.327.074-.163.067-.336.038-.5-.03.165-.026.3-.073.48-.04.116-.225-.203-.25-.3-.032-.052.22.006.187-.047.03-.068-.032-.172-.057-.27-.032-.05.174.044.157.02-.004-.122-.24-.313-.155-.35l.152-.093c.023-.022.043-.045.047-.076l-.03-.075a1.6 1.6 0 0 1-.232-.066c.022-.02.085-.038.106-.06-.02.022-.084.04-.106.06l.232.066-.183-.554c-.01.1-.06.162-.22.195.06-.018.117.01.114.056l-.117-.01c-.032-.095-.065-.2.114-.2l-.054-.073c.038-.012.104.014.163.03v-.054c-.12-.005-.294.048-.294.048z"/><path d="M94.333 32.228l-.001-.045-.097.138c.112.02.105-.037.097-.093z"/></g></svg>